<?xml version="1.0" standalone="no"?>
<!DOCTYPE svg PUBLIC "-//W3C//DTD SVG 20010904//EN"
 "http://www.w3.org/TR/2001/REC-SVG-20010904/DTD/svg10.dtd">
<svg version="1.0" xmlns="http://www.w3.org/2000/svg"
 width="145.000000pt" height="145.000000pt" viewBox="0 0 145.000000 145.000000"
 preserveAspectRatio="xMidYMid meet">
<metadata>
Created by potrace 1.11, written by Peter Selinger 2001-2013
</metadata>
<g transform="tranzinc(0.000000,145.000000) scale(0.100000,-0.100000)"
fill="#000000" stroke="none">
<path d="M1196 1404 c-9 -8 -17 -34 -17 -57 -1 -23 -2 -55 -3 -70 -2 -32 18
-67 40 -67 11 0 14 20 14 105 0 58 -4 105 -9 105 -5 0 -17 -7 -25 -16z"/>
<path d="M720 1313 c-49 -10 -150 -62 -184 -96 -59 -59 -126 -213 -126 -288 0
-21 16 -85 36 -141 44 -130 46 -155 9 -184 -28 -22 -28 -22 -54 -3 -55 41
-132 21 -171 -44 -25 -41 -25 -74 0 -115 47 -77 161 -69 206 14 21 38 84 64
70 29 -3 -8 1 -21 8 -27 12 -11 12 -15 0 -29 -19 -21 -8 -48 22 -55 23 -6 34
-24 14 -24 -18 0 -11 -28 11 -44 18 -12 28 -12 63 -2 l42 13 2 -53 c2 -99 45
-145 140 -149 31 -2 90 -15 130 -29 98 -36 166 -36 237 -1 l55 26 0 540 c0
586 4 551 -54 529 -24 -9 -28 -6 -45 28 -30 57 -64 84 -113 88 -24 1 -59 8
-78 13 -34 11 -171 13 -220 4z m90 -708 c0 -14 7 -41 15 -61 19 -46 12 -59
-40 -71 l-45 -10 0 37 c0 25 -5 40 -16 44 -31 12 -52 6 -61 -18 -7 -23 -9 -24
-28 -9 -16 12 -17 16 -5 21 8 3 35 25 60 48 36 35 52 44 83 44 33 0 37 -3 37
-25z"/>
<path d="M480 346 c0 -22 37 -66 69 -80 37 -17 35 -14 -20 27 -8 7 -23 23 -32
37 -9 13 -17 21 -17 16z"/>
</g>
</svg>
